<?xml version="1.0" encoding="UTF-8" standalone="no"?>
<!-- Created with Inkscape (http://www.inkscape.org/) -->

<svg
   width="84.369919mm"
   height="53.1096mm"
   viewBox="0 0 84.369919 53.1096"
   version="1.1"
   id="svg1"
   inkscape:version="1.3.2 (091e20e, 2023-11-25, custom)"
   sodipodi:docname="items.ink.svg"
   xmlns:inkscape="http://www.inkscape.org/namespaces/inkscape"
   xmlns:sodipodi="http://sodipodi.sourceforge.net/DTD/sodipodi-0.dtd"
   xmlns="http://www.w3.org/2000/svg"
   xmlns:svg="http://www.w3.org/2000/svg">
  <sodipodi:namedview
     id="namedview1"
     pagecolor="#ffffff"
     bordercolor="#000000"
     borderopacity="0.25"
     inkscape:showpageshadow="2"
     inkscape:pageopacity="0.0"
     inkscape:pagecheckerboard="0"
     inkscape:deskcolor="#d1d1d1"
     inkscape:document-units="mm"
     inkscape:zoom="1.4142136"
     inkscape:cx="354.96759"
     inkscape:cy="232.28457"
     inkscape:window-width="1600"
     inkscape:window-height="829"
     inkscape:window-x="-8"
     inkscape:window-y="-8"
     inkscape:window-maximized="1"
     inkscape:current-layer="layer5" />
  <defs
     id="defs1" />
  <g
     inkscape:groupmode="layer"
     id="layer6"
     inkscape:label="Layer 4"
     transform="translate(-10.858259,-131.73307)">
    <path
       style="fill:#2f4f78;fill-opacity:1;stroke:none;stroke-width:1;stroke-linecap:round;stroke-linejoin:round;stroke-miterlimit:5.1;stroke-dasharray:none;stroke-opacity:1"
       d="m 76.000182,161.32969 c -0.03307,1.85209 0.691335,2.84861 1.752865,2.74505 1.355989,-0.13229 1.521353,-1.38906 1.653644,-2.18281 0.132292,-0.79375 6.516742,-2.11667 6.516742,-0.52917 0,1.5875 -0.132291,2.87734 1.587501,2.87734 0.79375,0 1.885156,-1.2237 1.852083,-5.95312 -5.953125,0.79375 -13.362835,3.04271 -13.362835,3.04271 z"
       id="path34"
       sodipodi:nodetypes="csssscc" />
    <path
       style="fill:#5582bc;fill-opacity:1;stroke:none;stroke-width:1;stroke-linecap:round;stroke-linejoin:round;stroke-miterlimit:5.1;stroke-dasharray:none;stroke-opacity:1"
       d="m 75.736975,157.49323 c 0.264584,-1.19063 7.276042,-4.89479 8.995833,-5.02708 1.719792,-0.13229 8.958709,0.0264 9.789583,0.79375 0.809264,0.74744 0.738953,2.86364 0.661459,4.43509 -0.09215,1.86862 -0.635746,3.2512 -1.439159,3.20572 -2.337231,-0.13229 -0.148341,-3.67206 -1.206674,-2.48144 -1.058334,1.19063 -3.217878,2.95857 -7.583503,3.35544 -4.365625,0.39688 -9.217539,-4.28148 -9.217539,-4.28148 z"
       id="path35"
       sodipodi:nodetypes="cssssssc" />
    <path
       style="fill:#614626;fill-opacity:1;stroke:none;stroke-width:1;stroke-linecap:round;stroke-linejoin:round;stroke-miterlimit:5.1;stroke-dasharray:none;stroke-opacity:1"
       d="m 77.266477,161.38573 c 0,0 -5.918745,0.36477 -6.199378,-1.6932 -0.280633,-2.05798 2.948024,-2.07679 3.883466,-1.70261 0.935445,0.37418 12.550401,-0.35895 12.562341,1.08378 0.01375,1.66109 -0.896787,2.52645 -5.147692,2.60968 -2.467501,0.0483 -5.098737,-0.29765 -5.098737,-0.29765 z"
       id="path33"
       sodipodi:nodetypes="cssssc" />
    <path
       style="fill:#332a20;fill-opacity:1;stroke:none;stroke-width:1;stroke-linecap:round;stroke-linejoin:round;stroke-miterlimit:5.1;stroke-dasharray:none;stroke-opacity:1"
       d="m 56.620829,132.68854 c 9.657292,-1e-5 10.715626,2.64584 16.668751,17.59479 4.563121,11.4585 11.270243,11.64167 14.180659,9.525 -0.176546,1.01707 -1.565124,1.77528 -2.729808,2.04955 -1.194402,0.28128 -12.859095,-0.13475 -14.680077,-0.71941 -8.75977,-2.8125 -9.836299,-22.92599 -16.252502,-23.87727 -7.432743,-1.102 -5.653688,-1.00079 -10.416186,0.58671 -4.7625,1.5875 13.229163,-5.15937 13.229163,-5.15937 z"
       id="path32"
       sodipodi:nodetypes="cscssssc" />
    <path
       style="fill:#614626;fill-opacity:1;stroke:none;stroke-width:1;stroke-linecap:round;stroke-linejoin:round;stroke-miterlimit:5.1;stroke-dasharray:none;stroke-opacity:1"
       d="m 24.60625,168.27499 c 8.333235,-11.00062 9.68576,-36.59226 24.711141,-36.54184 12.808446,0.043 15.447163,1.15363 17.13647,4.25935 -2.799825,-1.39788 -7.660426,-3.68066 -13.272614,0.26791 -9.307355,6.54837 -10.583331,26.45834 -14.287497,31.22084 -3.704167,4.76249 -14.2875,0.79374 -14.2875,0.79374 z"
       id="path31"
       sodipodi:nodetypes="cscssc" />
    <path
       style="fill:#649ad8;fill-opacity:1;stroke:none;stroke-width:1;stroke-linecap:round;stroke-linejoin:round;stroke-miterlimit:5.1;stroke-dasharray:none;stroke-opacity:1"
       d="m 13.485293,183.38468 c -1.403165,0 -2.151519,-2.43215 -2.151519,-5.23848 0,-2.80633 4.191805,-5.41393 4.191805,-0.69576 0,4.71817 -0.450032,5.93424 -2.040286,5.93424 z"
       id="path29"
       sodipodi:nodetypes="ssss" />
    <path
       style="fill:#76adec;fill-opacity:1;stroke:none;stroke-width:1;stroke-linecap:round;stroke-linejoin:round;stroke-miterlimit:5.1;stroke-dasharray:none;stroke-opacity:1"
       d="m 11.691901,179.85935 c -0.58196,-0.87682 -1.167927,-6.05492 -0.606661,-7.73872 0.561265,-1.6838 12.990507,-6.64441 14.674305,-6.45732 1.683798,0.18709 12.873118,-0.39687 13.621477,1.28693 0.510964,1.14966 1.040355,3.43111 1.020381,5.24265 -0.04124,3.74055 -0.873135,7.12424 -1.394557,7.47938 -3.35717,2.2866 -2.268659,-2.27747 -3.644846,-1.83201 -2.094582,0.678 -3.151623,0.1957 -5.286581,1.37346 -1.406001,0.77562 -1.3315,5.63705 -3.555364,5.62894 -3.387393,-0.0124 -2.121637,-3.9302 -3.839926,-3.9965 -4.560401,-0.17593 -10.23677,0.14539 -10.988228,-0.98681 z"
       id="path30"
       sodipodi:nodetypes="sssssssssss" />
    <path
       style="fill:none;fill-opacity:1;stroke:#26211d;stroke-width:1;stroke-linecap:round;stroke-linejoin:round;stroke-miterlimit:5.1;stroke-dasharray:none;stroke-opacity:1"
       d="m 15.902536,171.74739 0.187089,2.05798"
       id="path36" />
    <path
       style="fill:none;fill-opacity:1;stroke:#26211d;stroke-width:1;stroke-linecap:round;stroke-linejoin:round;stroke-miterlimit:5.1;stroke-dasharray:none;stroke-opacity:1"
       d="m 24.321526,171.93448 v 2.24507"
       id="path37" />
    <path
       style="fill:none;fill-opacity:1;stroke:#26211d;stroke-width:1;stroke-linecap:round;stroke-linejoin:round;stroke-miterlimit:5.1;stroke-dasharray:none;stroke-opacity:1"
       d="m 17.212157,176.6117 c 0.311814,3.61653 3.804136,2.65548 4.303039,-0.18709"
       id="path38"
       sodipodi:nodetypes="cc" />
    <path
       style="fill:none;fill-opacity:1;stroke:#a0c7f4;stroke-width:1;stroke-linecap:round;stroke-linejoin:round;stroke-miterlimit:5.1;stroke-dasharray:none;stroke-opacity:1"
       d="m 28.624564,171.93448 7.857725,-3.27405"
       id="path39" />
  </g>
</svg>
