<?xml version="1.0" encoding="UTF-8" standalone="no"?>
<!-- Created with Inkscape (http://www.inkscape.org/) -->

<svg
   width="42.956188mm"
   height="75.938843mm"
   viewBox="0 0 42.956188 75.938843"
   version="1.1"
   id="svg1"
   inkscape:version="1.3.2 (091e20e, 2023-11-25, custom)"
   sodipodi:docname="items.ink.svg"
   xmlns:inkscape="http://www.inkscape.org/namespaces/inkscape"
   xmlns:sodipodi="http://sodipodi.sourceforge.net/DTD/sodipodi-0.dtd"
   xmlns="http://www.w3.org/2000/svg"
   xmlns:svg="http://www.w3.org/2000/svg">
  <sodipodi:namedview
     id="namedview1"
     pagecolor="#ffffff"
     bordercolor="#000000"
     borderopacity="0.25"
     inkscape:showpageshadow="2"
     inkscape:pageopacity="0.0"
     inkscape:pagecheckerboard="0"
     inkscape:deskcolor="#d1d1d1"
     inkscape:document-units="mm"
     inkscape:zoom="1.4142136"
     inkscape:cx="354.96759"
     inkscape:cy="232.28457"
     inkscape:window-width="1600"
     inkscape:window-height="829"
     inkscape:window-x="-8"
     inkscape:window-y="-8"
     inkscape:window-maximized="1"
     inkscape:current-layer="layer5" />
  <defs
     id="defs1" />
  <g
     inkscape:groupmode="layer"
     id="layer5"
     inkscape:label="Layer 3"
     transform="translate(-108.89139,-30.495454)">
    <path
       style="fill:#76c4ee;fill-opacity:1;stroke:none;stroke-width:0.954929;stroke-linecap:round;stroke-linejoin:round;stroke-miterlimit:5.1;stroke-dasharray:none;stroke-opacity:1"
       d="m 145.58062,64.108487 c 4.62035,10.089826 6.35563,14.196754 6.2635,18.73484 -0.12328,6.072465 -5.55191,7.833541 -5.1948,12.50957 0.3571,4.676033 6.23109,5.725873 2.82211,9.603113 -3.72704,4.23901 -7.69341,-1.47263 -8.75888,-6.63062 -1.89521,-9.174725 6.31616,-10.786089 5.79238,-16.572206 -0.52381,-5.786118 -3.35401,-10.847538 -5.2275,-16.430986 0.56373,-0.841393 4.30319,-1.213711 4.30319,-1.213711 z"
       id="path25"
       sodipodi:nodetypes="cssssscc"
       inkscape:export-filename="background\petitparty\capacitor-c.svg"
       inkscape:export-xdpi="96"
       inkscape:export-ydpi="96" />
    <path
       style="fill:#76c4ee;fill-opacity:1;stroke:none;stroke-width:1;stroke-linecap:round;stroke-linejoin:round;stroke-miterlimit:5.1;stroke-dasharray:none;stroke-opacity:1"
       d="m 125.72358,64.171411 4.30304,0.18709 c -0.28083,8.629415 -4.11959,21.036742 -6.92228,25.444056 -4.01157,6.308312 -8.41899,12.722033 -12.72203,9.167346 -4.30304,-3.554685 1.87089,-8.418991 3.92886,-10.289876 2.05798,-1.870887 9.72861,-12.160763 11.41241,-24.508616 z"
       id="path24"
       sodipodi:nodetypes="ccsssc" />
    <path
       style="fill:#f4a684;fill-opacity:1;stroke:none;stroke-width:1;stroke-linecap:round;stroke-linejoin:round;stroke-miterlimit:5.1;stroke-dasharray:none;stroke-opacity:1"
       d="m 124.03978,63.984321 c 0,-3.741772 4.30304,-1.683798 4.30304,-3.928862 0,-3.741773 -6.73519,-5.986834 -7.10937,-16.089624 -0.27698,-7.47842 6.36102,-13.470382 15.15418,-13.470382 8.79317,0 15.34914,6.246886 14.21874,14.96709 -1.30962,10.102789 -8.2319,11.786587 -8.2319,15.154184 0,2.432153 5.61266,0.561265 5.79974,3.741774 0.12085,2.054423 -6.361,1.309618 -11.78657,1.496708 -5.42558,0.187089 -12.34786,0.187089 -12.34786,-1.870888 z"
       id="path23"
       sodipodi:nodetypes="sssssssss" />
    <path
       style="fill:none;fill-opacity:1;stroke:#493934;stroke-width:1;stroke-linecap:round;stroke-linejoin:round;stroke-miterlimit:5.1;stroke-dasharray:none;stroke-opacity:1"
       d="m 128.52991,52.384824 c 4.36607,0.749023 10.86065,1.007317 15.34127,0.561266"
       id="path26"
       sodipodi:nodetypes="cc" />
    <ellipse
       style="fill:#8394e8;fill-opacity:1;stroke:#5f73dd;stroke-width:1.09223;stroke-linecap:round;stroke-linejoin:round;stroke-miterlimit:5.1;stroke-dasharray:none;stroke-opacity:1"
       id="path27"
       cx="129.83954"
       cy="41.81432"
       rx="5.1923656"
       ry="4.7246437" />
    <ellipse
       style="fill:#8394e8;fill-opacity:1;stroke:#5f73dd;stroke-width:1.09223;stroke-linecap:round;stroke-linejoin:round;stroke-miterlimit:5.1;stroke-dasharray:none;stroke-opacity:1"
       id="path27-0"
       cx="144.04131"
       cy="42.699898"
       rx="5.1923656"
       ry="4.7246437" />
    <path
       style="fill:#8394e8;fill-opacity:1;stroke:#513f30;stroke-width:1;stroke-linecap:round;stroke-linejoin:round;stroke-miterlimit:5.1;stroke-dasharray:none;stroke-opacity:1"
       d="m 127.2203,43.778746 c 2.15332,-1.654425 3.83223,-2.834432 5.23848,-3.741772"
       id="path28"
       sodipodi:nodetypes="cc" />
    <path
       style="fill:#8394e8;fill-opacity:1;stroke:#513f30;stroke-width:1;stroke-linecap:round;stroke-linejoin:round;stroke-miterlimit:5.1;stroke-dasharray:none;stroke-opacity:1"
       d="m 127.31749,39.514332 c 1.98311,1.855039 3.42086,3.319291 4.54516,4.558944"
       id="path28-7"
       sodipodi:nodetypes="cc" />
    <path
       style="fill:#8394e8;fill-opacity:1;stroke:#513f30;stroke-width:1;stroke-linecap:round;stroke-linejoin:round;stroke-miterlimit:5.1;stroke-dasharray:none;stroke-opacity:1"
       d="m 141.80921,45.131004 c 1.89553,-1.944452 3.38911,-3.35171 4.65167,-4.450223"
       id="path28-3"
       sodipodi:nodetypes="cc" />
    <path
       style="fill:#8394e8;fill-opacity:1;stroke:#513f30;stroke-width:1;stroke-linecap:round;stroke-linejoin:round;stroke-miterlimit:5.1;stroke-dasharray:none;stroke-opacity:1"
       d="m 141.29759,40.896276 c 2.22727,1.553442 3.85904,2.797818 5.14855,3.864565"
       id="path28-7-8"
       sodipodi:nodetypes="cc" />
  </g>
</svg>
