<?xml version="1.0" encoding="UTF-8" standalone="no"?>
<!-- Created with Inkscape (http://www.inkscape.org/) -->

<svg
   width="27.761049mm"
   height="81.235924mm"
   viewBox="0 0 27.761049 81.235924"
   version="1.1"
   id="svg1"
   inkscape:version="1.3.2 (091e20e, 2023-11-25, custom)"
   sodipodi:docname="items.ink.svg"
   xmlns:inkscape="http://www.inkscape.org/namespaces/inkscape"
   xmlns:sodipodi="http://sodipodi.sourceforge.net/DTD/sodipodi-0.dtd"
   xmlns="http://www.w3.org/2000/svg"
   xmlns:svg="http://www.w3.org/2000/svg">
  <sodipodi:namedview
     id="namedview1"
     pagecolor="#ffffff"
     bordercolor="#000000"
     borderopacity="0.25"
     inkscape:showpageshadow="2"
     inkscape:pageopacity="0.0"
     inkscape:pagecheckerboard="0"
     inkscape:deskcolor="#d1d1d1"
     inkscape:document-units="mm"
     inkscape:zoom="1.4142136"
     inkscape:cx="145.664"
     inkscape:cy="268.34702"
     inkscape:window-width="1600"
     inkscape:window-height="829"
     inkscape:window-x="-8"
     inkscape:window-y="-8"
     inkscape:window-maximized="1"
     inkscape:current-layer="layer1" />
  <defs
     id="defs1" />
  <g
     inkscape:label="Layer 1"
     inkscape:groupmode="layer"
     id="layer1"
     transform="translate(-15.461433,-29.095327)">
    <path
       style="fill:#9ad3c4;fill-opacity:1;stroke:none;stroke-width:1;stroke-linecap:round;stroke-linejoin:round;stroke-miterlimit:5.1;stroke-dasharray:none;stroke-opacity:1"
       d="m 28.045833,63.103124 c 0,0 2.910417,-5.820833 2.910417,0.264584 0,6.085416 2.513541,12.038541 2.248958,17.594791 -0.264583,5.55625 -5.55625,6.879167 -7.011458,6.879167 -1.455209,0 -2.645834,-0.264584 -2.645834,-0.264584 0,0 -1.322916,-0.264583 0.661459,-0.264583 1.984375,0 5.477596,-1.386925 5.556249,-5.027083 0.14438,-6.682117 -2.513541,-13.361459 -1.719791,-19.182292 z"
       id="path7"
       sodipodi:nodetypes="cssscssc"
       inkscape:export-filename="background\petitparty\capacitor.png"
       inkscape:export-xdpi="96"
       inkscape:export-ydpi="96" />
    <path
       style="fill:#9ad3c4;fill-opacity:1;stroke:none;stroke-width:1;stroke-linecap:round;stroke-linejoin:round;stroke-miterlimit:5.1;stroke-dasharray:none;stroke-opacity:1"
       d="m 36.380208,63.367707 c 0,0 3.175,-0.264583 3.571875,-0.661458 0,7.805209 2.248958,17.065625 1.984375,24.738541 -0.319265,9.258693 -3.439583,22.88646 -3.439583,22.88646 -0.619959,-0.83889 -1.054577,-1.60364 -2.513542,-2.77813 -1.399139,1.30715 -2.607156,1.6587 -3.836458,2.11667 2.116667,-4.05893 5.205343,-12.4067 5.556249,-22.092708 C 38.15354,75.144346 35.851041,69.717707 36.380208,63.367707 Z"
       id="path8"
       sodipodi:nodetypes="ccscccsc" />
    <path
       style="fill:#7fd8ee;stroke:none;stroke-width:0;stroke-linecap:round;stroke-linejoin:round;stroke-miterlimit:5.1;stroke-dasharray:none"
       d="m 26.45558,33.433798 c 0,-3.704167 5.29442,-4.329632 7.67567,-4.329632 2.38125,0 3.439584,4.497917 3.175,8.202084 -0.244098,3.41736 3.257779,26.254026 -0.759054,26.884602 -0.815891,0.128081 -1.322832,0.275768 -2.283654,0.268262 -4.233333,-0.03307 -7.85834,-0.165529 -7.838282,-1.554428 0.02914,-2.017508 2.414323,-1.190624 2.414323,-2.315103 0,-1.852084 -2.645833,-0.529167 -2.645833,-3.439584 0,-2.910416 0.26183,-18.689118 0.26183,-23.716201 z"
       id="path1"
       sodipodi:nodetypes="sssssssss" />
    <path
       style="fill:#faa3bf;fill-opacity:1;stroke:none;stroke-width:0;stroke-linecap:round;stroke-linejoin:round;stroke-miterlimit:5.1;stroke-dasharray:none"
       d="m 34.13125,29.104166 c 5.55625,0 7.937499,1.403165 7.937499,5.901082 0,4.497917 -0.264583,18.176001 -0.264583,21.086418 0,2.910417 -3.175,2.38125 -3.175,3.96875 0,1.5875 3.175,0.264583 3.175,2.116667 0,1.852083 -2.315103,2.248958 -6.81302,2.248958 0,-0.425442 0.06632,-1.363056 0.06666,-1.818911 3.83e-4,-0.512486 -0.328915,-1.373216 -0.326525,-1.918307 0.0027,-0.620767 0.498621,-1.261168 0.509833,-1.917429 0.210095,-12.297345 0.907707,-30.13027 -1.109869,-29.667228 z"
       id="path2"
       sodipodi:nodetypes="csssscssscc" />
    <path
       style="fill:none;fill-opacity:1;stroke:#786c57;stroke-width:1;stroke-linecap:round;stroke-linejoin:round;stroke-miterlimit:5.1;stroke-dasharray:none;stroke-opacity:1"
       d="m 33.80052,30.890104 c 1.294303,1.006494 2.496191,2.059196 3.439583,3.241145"
       id="path3"
       sodipodi:nodetypes="cc" />
    <path
       style="fill:none;fill-opacity:1;stroke:#786c57;stroke-width:1;stroke-linecap:round;stroke-linejoin:round;stroke-miterlimit:5.1;stroke-dasharray:none;stroke-opacity:1"
       d="m 33.72556,33.974389 c 1.167245,-1.151429 2.368205,-2.20519 3.663465,-2.985761"
       id="path3-9"
       sodipodi:nodetypes="cc" />
    <path
       style="fill:none;fill-opacity:1;stroke:#786c57;stroke-width:1;stroke-linecap:round;stroke-linejoin:round;stroke-miterlimit:5.1;stroke-dasharray:none;stroke-opacity:1"
       d="m 33.714023,36.615624 c 1.294303,1.006494 2.496191,2.059196 3.439583,3.241145"
       id="path3-5"
       sodipodi:nodetypes="cc" />
    <path
       style="fill:none;fill-opacity:1;stroke:#786c57;stroke-width:1;stroke-linecap:round;stroke-linejoin:round;stroke-miterlimit:5.1;stroke-dasharray:none;stroke-opacity:1"
       d="m 33.639063,39.699909 c 1.167245,-1.151429 2.368205,-2.20519 3.663465,-2.985761"
       id="path3-9-1"
       sodipodi:nodetypes="cc" />
    <path
       style="fill:none;fill-opacity:1;stroke:#786c57;stroke-width:1;stroke-linecap:round;stroke-linejoin:round;stroke-miterlimit:5.1;stroke-dasharray:none;stroke-opacity:1"
       d="m 33.647877,42.70104 c 1.294303,1.006494 2.496191,2.059196 3.439583,3.241145"
       id="path3-1"
       sodipodi:nodetypes="cc" />
    <path
       style="fill:none;fill-opacity:1;stroke:#786c57;stroke-width:1;stroke-linecap:round;stroke-linejoin:round;stroke-miterlimit:5.1;stroke-dasharray:none;stroke-opacity:1"
       d="m 33.572917,45.785325 c 1.167245,-1.151429 2.368205,-2.20519 3.663465,-2.985761"
       id="path3-9-7"
       sodipodi:nodetypes="cc" />
    <path
       style="fill:none;fill-opacity:1;stroke:#786c57;stroke-width:1;stroke-linecap:round;stroke-linejoin:round;stroke-miterlimit:5.1;stroke-dasharray:none;stroke-opacity:1"
       d="m 33.581731,48.455728 c 1.294303,1.006494 2.496191,2.059196 3.439583,3.241145"
       id="path3-7"
       sodipodi:nodetypes="cc" />
    <path
       style="fill:none;fill-opacity:1;stroke:#786c57;stroke-width:1;stroke-linecap:round;stroke-linejoin:round;stroke-miterlimit:5.1;stroke-dasharray:none;stroke-opacity:1"
       d="m 33.506771,51.540013 c 1.167245,-1.151429 2.368205,-2.20519 3.663465,-2.985761"
       id="path3-9-11"
       sodipodi:nodetypes="cc" />
    <path
       style="fill:none;fill-opacity:1;stroke:#786c57;stroke-width:1;stroke-linecap:round;stroke-linejoin:round;stroke-miterlimit:5.1;stroke-dasharray:none;stroke-opacity:1"
       d="m 33.581731,54.474999 c 1.294303,1.006494 2.496191,2.059196 3.439583,3.241145"
       id="path3-3"
       sodipodi:nodetypes="cc"
       inkscape:transform-center-x="0.2354185"
       inkscape:transform-center-y="-3.175" />
    <path
       style="fill:none;fill-opacity:1;stroke:#786c57;stroke-width:1;stroke-linecap:round;stroke-linejoin:round;stroke-miterlimit:5.1;stroke-dasharray:none;stroke-opacity:1"
       d="m 33.506771,57.559284 c 1.167245,-1.151429 2.368205,-2.20519 3.663465,-2.985761"
       id="path3-9-0"
       sodipodi:nodetypes="cc"
       inkscape:transform-center-x="0.1984375"
       inkscape:transform-center-y="-3.204168" />
    <path
       style="fill:none;fill-opacity:1;stroke:#464138;stroke-width:1;stroke-linecap:round;stroke-linejoin:round;stroke-miterlimit:5.1;stroke-dasharray:none;stroke-opacity:1"
       d="m 28.000147,51.873199 c -0.304967,1.934969 1.380638,3.276946 3.319155,1.321318"
       id="path4" />
    <ellipse
       style="fill:#e7a334;fill-opacity:1;stroke:#eab539;stroke-width:0.883514;stroke-linecap:round;stroke-linejoin:round;stroke-miterlimit:5.1;stroke-dasharray:none;stroke-opacity:1"
       id="path5"
       cx="21.14525"
       cy="46.682182"
       rx="2.6848643"
       ry="3.0224249"
       transform="matrix(0.97209943,-0.23456916,0.16754309,0.98586475,0,0)" />
    <ellipse
       style="fill:#e7a334;fill-opacity:1;stroke:#eab539;stroke-width:0.796586;stroke-linecap:round;stroke-linejoin:round;stroke-miterlimit:5.1;stroke-dasharray:none;stroke-opacity:1"
       id="path5-9"
       cx="46.033592"
       cy="37.635429"
       rx="2.1113377"
       ry="3.1243448"
       transform="matrix(0.99238845,0.12314696,-0.13275531,0.99114884,0,0)" />
    <path
       style="fill:none;fill-opacity:1;stroke:#464138;stroke-width:1;stroke-linecap:round;stroke-linejoin:round;stroke-miterlimit:5.1;stroke-dasharray:none;stroke-opacity:1"
       d="m 27.185937,40.632345 c 0.727604,-0.540539 1.455209,-0.496572 2.182813,-0.529167"
       id="path6"
       sodipodi:nodetypes="cc" />
    <path
       style="fill:none;fill-opacity:1;stroke:#464138;stroke-width:1;stroke-linecap:round;stroke-linejoin:round;stroke-miterlimit:5.1;stroke-dasharray:none;stroke-opacity:1"
       d="m 27.4875,42.190676 c 0.727604,-0.540539 1.455209,-0.496572 2.182813,-0.529167"
       id="path6-2"
       sodipodi:nodetypes="cc" />
    <path
       style="fill:none;fill-opacity:1;stroke:#464138;stroke-width:1;stroke-linecap:round;stroke-linejoin:round;stroke-miterlimit:5.1;stroke-dasharray:none;stroke-opacity:1"
       d="m 39.970155,41.668684 c 0.654829,-0.12365 1.103899,0.271295 1.579919,0.598311"
       id="path6-0"
       sodipodi:nodetypes="cc" />
    <path
       style="fill:none;fill-opacity:1;stroke:#464138;stroke-width:1;stroke-linecap:round;stroke-linejoin:round;stroke-miterlimit:5.1;stroke-dasharray:none;stroke-opacity:1"
       d="m 39.767926,43.444366 c 0.654829,-0.12365 1.103899,0.271295 1.579919,0.598311"
       id="path6-0-6"
       sodipodi:nodetypes="cc" />
    <path
       style="fill:#72ae9f;fill-opacity:1;stroke:none;stroke-width:1;stroke-linecap:round;stroke-linejoin:round;stroke-miterlimit:5.1;stroke-dasharray:none;stroke-opacity:1"
       d="m 25.929166,87.709374 c -5.225521,0.859896 -7.146687,-1.305926 -8.73125,-4.034895 -1.190625,-2.050522 -1.852083,-5.754688 -1.719791,-8.003647 1.322917,1.12448 2.645833,1.587501 2.645833,1.587501 0,0 1.719792,-1.389063 2.513542,-2.645834 -0.33073,3.241145 -0.03588,6.328118 0.330729,8.466667 0.396874,2.315103 1.653646,4.233333 4.960937,4.630208 z"
       id="path9"
       sodipodi:nodetypes="cscccsc" />
  </g>
</svg>
