<?xml version="1.0" encoding="UTF-8" standalone="no"?>
<!-- Created with Inkscape (http://www.inkscape.org/) -->

<svg
   width="210mm"
   height="297mm"
   viewBox="0 0 210 297"
   version="1.1"
   id="svg1"
   inkscape:version="1.3.2 (091e20e, 2023-11-25, custom)"
   sodipodi:docname="items.ink.svg"
   xmlns:inkscape="http://www.inkscape.org/namespaces/inkscape"
   xmlns:sodipodi="http://sodipodi.sourceforge.net/DTD/sodipodi-0.dtd"
   xmlns="http://www.w3.org/2000/svg"
   xmlns:svg="http://www.w3.org/2000/svg">
  <sodipodi:namedview
     id="namedview1"
     pagecolor="#ffffff"
     bordercolor="#000000"
     borderopacity="0.25"
     inkscape:showpageshadow="2"
     inkscape:pageopacity="0.0"
     inkscape:pagecheckerboard="0"
     inkscape:deskcolor="#d1d1d1"
     inkscape:document-units="mm"
     inkscape:zoom="0.7071068"
     inkscape:cx="229.10259"
     inkscape:cy="506.99555"
     inkscape:window-width="1600"
     inkscape:window-height="829"
     inkscape:window-x="-8"
     inkscape:window-y="-8"
     inkscape:window-maximized="1"
     inkscape:current-layer="layer6" />
  <defs
     id="defs1" />
  <g
     inkscape:label="Layer 1"
     inkscape:groupmode="layer"
     id="layer1">
    <path
       style="fill:#9ad3c4;fill-opacity:1;stroke:none;stroke-width:1;stroke-linecap:round;stroke-linejoin:round;stroke-miterlimit:5.1;stroke-dasharray:none;stroke-opacity:1"
       d="m 28.045833,63.103124 c 0,0 2.910417,-5.820833 2.910417,0.264584 0,6.085416 2.513541,12.038541 2.248958,17.594791 -0.264583,5.55625 -5.55625,6.879167 -7.011458,6.879167 -1.455209,0 -2.645834,-0.264584 -2.645834,-0.264584 0,0 -1.322916,-0.264583 0.661459,-0.264583 1.984375,0 5.477596,-1.386925 5.556249,-5.027083 0.14438,-6.682117 -2.513541,-13.361459 -1.719791,-19.182292 z"
       id="path7"
       sodipodi:nodetypes="cssscssc"
       inkscape:export-filename="background\petitparty\capacitor-e.svg"
       inkscape:export-xdpi="96"
       inkscape:export-ydpi="96" />
    <path
       style="fill:#9ad3c4;fill-opacity:1;stroke:none;stroke-width:1;stroke-linecap:round;stroke-linejoin:round;stroke-miterlimit:5.1;stroke-dasharray:none;stroke-opacity:1"
       d="m 36.380208,63.367707 c 0,0 3.175,-0.264583 3.571875,-0.661458 0,7.805209 2.248958,17.065625 1.984375,24.738541 -0.319265,9.258693 -3.439583,22.88646 -3.439583,22.88646 -0.619959,-0.83889 -1.054577,-1.60364 -2.513542,-2.77813 -1.399139,1.30715 -2.607156,1.6587 -3.836458,2.11667 2.116667,-4.05893 5.205343,-12.4067 5.556249,-22.092708 C 38.15354,75.144346 35.851041,69.717707 36.380208,63.367707 Z"
       id="path8"
       sodipodi:nodetypes="ccscccsc" />
    <path
       style="fill:#7fd8ee;stroke:none;stroke-width:0;stroke-linecap:round;stroke-linejoin:round;stroke-miterlimit:5.1;stroke-dasharray:none"
       d="m 26.45558,33.433798 c 0,-3.704167 5.29442,-4.329632 7.67567,-4.329632 2.38125,0 3.439584,4.497917 3.175,8.202084 -0.244098,3.41736 3.257779,26.254026 -0.759054,26.884602 -0.815891,0.128081 -1.322832,0.275768 -2.283654,0.268262 -4.233333,-0.03307 -7.85834,-0.165529 -7.838282,-1.554428 0.02914,-2.017508 2.414323,-1.190624 2.414323,-2.315103 0,-1.852084 -2.645833,-0.529167 -2.645833,-3.439584 0,-2.910416 0.26183,-18.689118 0.26183,-23.716201 z"
       id="path1"
       sodipodi:nodetypes="sssssssss" />
    <path
       style="fill:#faa3bf;fill-opacity:1;stroke:none;stroke-width:0;stroke-linecap:round;stroke-linejoin:round;stroke-miterlimit:5.1;stroke-dasharray:none"
       d="m 34.13125,29.104166 c 5.55625,0 7.937499,1.403165 7.937499,5.901082 0,4.497917 -0.264583,18.176001 -0.264583,21.086418 0,2.910417 -3.175,2.38125 -3.175,3.96875 0,1.5875 3.175,0.264583 3.175,2.116667 0,1.852083 -2.315103,2.248958 -6.81302,2.248958 0,-0.425442 0.06632,-1.363056 0.06666,-1.818911 3.83e-4,-0.512486 -0.328915,-1.373216 -0.326525,-1.918307 0.0027,-0.620767 0.498621,-1.261168 0.509833,-1.917429 0.210095,-12.297345 0.907707,-30.13027 -1.109869,-29.667228 z"
       id="path2"
       sodipodi:nodetypes="csssscssscc" />
    <path
       style="fill:none;fill-opacity:1;stroke:#786c57;stroke-width:1;stroke-linecap:round;stroke-linejoin:round;stroke-miterlimit:5.1;stroke-dasharray:none;stroke-opacity:1"
       d="m 33.80052,30.890104 c 1.294303,1.006494 2.496191,2.059196 3.439583,3.241145"
       id="path3"
       sodipodi:nodetypes="cc" />
    <path
       style="fill:none;fill-opacity:1;stroke:#786c57;stroke-width:1;stroke-linecap:round;stroke-linejoin:round;stroke-miterlimit:5.1;stroke-dasharray:none;stroke-opacity:1"
       d="m 33.72556,33.974389 c 1.167245,-1.151429 2.368205,-2.20519 3.663465,-2.985761"
       id="path3-9"
       sodipodi:nodetypes="cc" />
    <path
       style="fill:none;fill-opacity:1;stroke:#786c57;stroke-width:1;stroke-linecap:round;stroke-linejoin:round;stroke-miterlimit:5.1;stroke-dasharray:none;stroke-opacity:1"
       d="m 33.714023,36.615624 c 1.294303,1.006494 2.496191,2.059196 3.439583,3.241145"
       id="path3-5"
       sodipodi:nodetypes="cc" />
    <path
       style="fill:none;fill-opacity:1;stroke:#786c57;stroke-width:1;stroke-linecap:round;stroke-linejoin:round;stroke-miterlimit:5.1;stroke-dasharray:none;stroke-opacity:1"
       d="m 33.639063,39.699909 c 1.167245,-1.151429 2.368205,-2.20519 3.663465,-2.985761"
       id="path3-9-1"
       sodipodi:nodetypes="cc" />
    <path
       style="fill:none;fill-opacity:1;stroke:#786c57;stroke-width:1;stroke-linecap:round;stroke-linejoin:round;stroke-miterlimit:5.1;stroke-dasharray:none;stroke-opacity:1"
       d="m 33.647877,42.70104 c 1.294303,1.006494 2.496191,2.059196 3.439583,3.241145"
       id="path3-1"
       sodipodi:nodetypes="cc" />
    <path
       style="fill:none;fill-opacity:1;stroke:#786c57;stroke-width:1;stroke-linecap:round;stroke-linejoin:round;stroke-miterlimit:5.1;stroke-dasharray:none;stroke-opacity:1"
       d="m 33.572917,45.785325 c 1.167245,-1.151429 2.368205,-2.20519 3.663465,-2.985761"
       id="path3-9-7"
       sodipodi:nodetypes="cc" />
    <path
       style="fill:none;fill-opacity:1;stroke:#786c57;stroke-width:1;stroke-linecap:round;stroke-linejoin:round;stroke-miterlimit:5.1;stroke-dasharray:none;stroke-opacity:1"
       d="m 33.581731,48.455728 c 1.294303,1.006494 2.496191,2.059196 3.439583,3.241145"
       id="path3-7"
       sodipodi:nodetypes="cc" />
    <path
       style="fill:none;fill-opacity:1;stroke:#786c57;stroke-width:1;stroke-linecap:round;stroke-linejoin:round;stroke-miterlimit:5.1;stroke-dasharray:none;stroke-opacity:1"
       d="m 33.506771,51.540013 c 1.167245,-1.151429 2.368205,-2.20519 3.663465,-2.985761"
       id="path3-9-11"
       sodipodi:nodetypes="cc" />
    <path
       style="fill:none;fill-opacity:1;stroke:#786c57;stroke-width:1;stroke-linecap:round;stroke-linejoin:round;stroke-miterlimit:5.1;stroke-dasharray:none;stroke-opacity:1"
       d="m 33.581731,54.474999 c 1.294303,1.006494 2.496191,2.059196 3.439583,3.241145"
       id="path3-3"
       sodipodi:nodetypes="cc"
       inkscape:transform-center-x="0.2354185"
       inkscape:transform-center-y="-3.175" />
    <path
       style="fill:none;fill-opacity:1;stroke:#786c57;stroke-width:1;stroke-linecap:round;stroke-linejoin:round;stroke-miterlimit:5.1;stroke-dasharray:none;stroke-opacity:1"
       d="m 33.506771,57.559284 c 1.167245,-1.151429 2.368205,-2.20519 3.663465,-2.985761"
       id="path3-9-0"
       sodipodi:nodetypes="cc"
       inkscape:transform-center-x="0.1984375"
       inkscape:transform-center-y="-3.204168" />
    <path
       style="fill:none;fill-opacity:1;stroke:#464138;stroke-width:1;stroke-linecap:round;stroke-linejoin:round;stroke-miterlimit:5.1;stroke-dasharray:none;stroke-opacity:1"
       d="m 28.000147,51.873199 c -0.304967,1.934969 1.380638,3.276946 3.319155,1.321318"
       id="path4" />
    <ellipse
       style="fill:#e7a334;fill-opacity:1;stroke:#eab539;stroke-width:0.883514;stroke-linecap:round;stroke-linejoin:round;stroke-miterlimit:5.1;stroke-dasharray:none;stroke-opacity:1"
       id="path5"
       cx="21.14525"
       cy="46.682182"
       rx="2.6848643"
       ry="3.0224249"
       transform="matrix(0.97209943,-0.23456916,0.16754309,0.98586475,0,0)" />
    <ellipse
       style="fill:#e7a334;fill-opacity:1;stroke:#eab539;stroke-width:0.796586;stroke-linecap:round;stroke-linejoin:round;stroke-miterlimit:5.1;stroke-dasharray:none;stroke-opacity:1"
       id="path5-9"
       cx="46.033592"
       cy="37.635429"
       rx="2.1113377"
       ry="3.1243448"
       transform="matrix(0.99238845,0.12314696,-0.13275531,0.99114884,0,0)" />
    <path
       style="fill:none;fill-opacity:1;stroke:#464138;stroke-width:1;stroke-linecap:round;stroke-linejoin:round;stroke-miterlimit:5.1;stroke-dasharray:none;stroke-opacity:1"
       d="m 27.185937,40.632345 c 0.727604,-0.540539 1.455209,-0.496572 2.182813,-0.529167"
       id="path6"
       sodipodi:nodetypes="cc" />
    <path
       style="fill:none;fill-opacity:1;stroke:#464138;stroke-width:1;stroke-linecap:round;stroke-linejoin:round;stroke-miterlimit:5.1;stroke-dasharray:none;stroke-opacity:1"
       d="m 27.4875,42.190676 c 0.727604,-0.540539 1.455209,-0.496572 2.182813,-0.529167"
       id="path6-2"
       sodipodi:nodetypes="cc" />
    <path
       style="fill:none;fill-opacity:1;stroke:#464138;stroke-width:1;stroke-linecap:round;stroke-linejoin:round;stroke-miterlimit:5.1;stroke-dasharray:none;stroke-opacity:1"
       d="m 39.970155,41.668684 c 0.654829,-0.12365 1.103899,0.271295 1.579919,0.598311"
       id="path6-0"
       sodipodi:nodetypes="cc" />
    <path
       style="fill:none;fill-opacity:1;stroke:#464138;stroke-width:1;stroke-linecap:round;stroke-linejoin:round;stroke-miterlimit:5.1;stroke-dasharray:none;stroke-opacity:1"
       d="m 39.767926,43.444366 c 0.654829,-0.12365 1.103899,0.271295 1.579919,0.598311"
       id="path6-0-6"
       sodipodi:nodetypes="cc" />
    <path
       style="fill:#72ae9f;fill-opacity:1;stroke:none;stroke-width:1;stroke-linecap:round;stroke-linejoin:round;stroke-miterlimit:5.1;stroke-dasharray:none;stroke-opacity:1"
       d="m 25.929166,87.709374 c -5.225521,0.859896 -7.146687,-1.305926 -8.73125,-4.034895 -1.190625,-2.050522 -1.852083,-5.754688 -1.719791,-8.003647 1.322917,1.12448 2.645833,1.587501 2.645833,1.587501 0,0 1.719792,-1.389063 2.513542,-2.645834 -0.33073,3.241145 -0.03588,6.328118 0.330729,8.466667 0.396874,2.315103 1.653646,4.233333 4.960937,4.630208 z"
       id="path9"
       sodipodi:nodetypes="cscccsc" />
  </g>
  <g
     inkscape:groupmode="layer"
     id="layer4"
     inkscape:label="Layer 2">
    <path
       id="rect1"
       style="fill:#a48bbc;stroke-linecap:round;stroke-linejoin:round;stroke-miterlimit:5.1;fill-opacity:1"
       d="m 69.503437,29.934185 c 1.957262,1.303243 1.319028,3.367596 2.806332,3.367596 3.264646,0 -1.48994,-8.606079 3.46114,-8.606079 4.95108,0 -0.01916,8.793168 3.741773,8.793168 1.796501,0 1.959172,-2.191228 3.741771,-3.086963 1.782599,-0.895735 4.490128,0.957287 4.490128,3.64823 v 41.341087 c 0,0 -2.338608,-0.677599 -2.338608,1.122532 0,1.800132 2.338608,1.122532 2.338608,1.122532 V 104.58256 H 63.984322 V 33.488871 c 0,-3.232627 3.561854,-4.857929 5.519115,-3.554686 z"
       sodipodi:nodetypes="zszszcczccccz"
       inkscape:export-filename="background\petitparty\memory.svg"
       inkscape:export-xdpi="96"
       inkscape:export-ydpi="96" />
    <ellipse
       style="fill:#fdfdfc;fill-opacity:1;stroke-width:1.26985;stroke-linecap:round;stroke-linejoin:round;stroke-miterlimit:5.1"
       id="path10"
       cx="70.246155"
       cy="101.08121"
       rx="3.6425827"
       ry="3.5948815" />
    <ellipse
       style="fill:#fdfdfc;fill-opacity:1;stroke-width:1.26985;stroke-linecap:round;stroke-linejoin:round;stroke-miterlimit:5.1"
       id="path10-4"
       cx="81.396454"
       cy="100.98813"
       rx="3.6425827"
       ry="3.5948815" />
    <ellipse
       style="fill:#0b0908;fill-opacity:1;stroke-width:1.22735;stroke-linecap:round;stroke-linejoin:round;stroke-miterlimit:5.1"
       id="path11"
       cx="69.971161"
       cy="100.3263"
       rx="2.80633"
       ry="2.7595577" />
    <ellipse
       style="fill:#0b0908;fill-opacity:1;stroke-width:1.22735;stroke-linecap:round;stroke-linejoin:round;stroke-miterlimit:5.1"
       id="path11-3"
       cx="81.110176"
       cy="100.24912"
       rx="2.80633"
       ry="2.7595577" />
    <ellipse
       style="fill:#fdfdfc;fill-opacity:1;stroke-width:0.161085;stroke-linecap:round;stroke-linejoin:round;stroke-miterlimit:5.1"
       id="path10-6"
       cx="68.927711"
       cy="98.830132"
       rx="0.46207535"
       ry="0.45602429" />
    <ellipse
       style="fill:#fdfdfc;fill-opacity:1;stroke-width:0.161085;stroke-linecap:round;stroke-linejoin:round;stroke-miterlimit:5.1"
       id="path10-6-1"
       cx="80.104881"
       cy="98.803528"
       rx="0.46207535"
       ry="0.45602429" />
    <path
       style="fill:none;fill-opacity:1;stroke:#442a18;stroke-width:1;stroke-linecap:round;stroke-linejoin:round;stroke-miterlimit:5.1;stroke-dasharray:none;stroke-opacity:1"
       d="m 73.002824,96.754033 c 0,-2.161763 2.9084,-2.281859 2.9084,0.120106 0.116343,-2.161764 3.189037,-2.06822 3.189037,0.08087"
       id="path12"
       sodipodi:nodetypes="ccc" />
    <path
       style="fill:none;fill-opacity:1;stroke:#442a18;stroke-width:1;stroke-linecap:round;stroke-linejoin:round;stroke-miterlimit:5.1;stroke-dasharray:none;stroke-opacity:1"
       d="m 85.328121,93.265621 2.38125,1.058333"
       id="path13" />
    <path
       style="fill:none;fill-opacity:1;stroke:#442a18;stroke-width:1;stroke-linecap:round;stroke-linejoin:round;stroke-miterlimit:5.1;stroke-dasharray:none;stroke-opacity:1"
       d="m 85.328121,90.619788 h 2.513542"
       id="path14" />
    <path
       style="fill:none;fill-opacity:1;stroke:#442a18;stroke-width:1;stroke-linecap:round;stroke-linejoin:round;stroke-miterlimit:5.1;stroke-dasharray:none;stroke-opacity:1"
       d="M 84.931246,88.503121 87.57708,87.57708"
       id="path15" />
    <path
       style="fill:none;fill-opacity:1;stroke:#442a18;stroke-width:1;stroke-linecap:round;stroke-linejoin:round;stroke-miterlimit:5.1;stroke-dasharray:none;stroke-opacity:1"
       d="M 66.542705,91.810413 64.029163,91.678121"
       id="path16" />
    <path
       style="fill:none;fill-opacity:1;stroke:#442a18;stroke-width:1;stroke-linecap:round;stroke-linejoin:round;stroke-miterlimit:5.1;stroke-dasharray:none;stroke-opacity:1"
       d="m 66.278122,93.662496 -2.116667,0.79375"
       id="path17" />
    <path
       style="fill:none;fill-opacity:1;stroke:#442a18;stroke-width:1;stroke-linecap:round;stroke-linejoin:round;stroke-miterlimit:5.1;stroke-dasharray:none;stroke-opacity:1"
       d="m 66.674997,89.16458 -2.38125,-0.661459"
       id="path18" />
    <path
       style="fill:none;fill-opacity:1;stroke:#674388;stroke-width:1;stroke-linecap:round;stroke-linejoin:round;stroke-miterlimit:5.1;stroke-dasharray:none;stroke-opacity:1"
       d="m 80.962496,89.561455 c -5.423958,-2.745052 -10.871048,0.913567 -11.310937,-1.984376 -0.13629,-0.897865 0.463021,-1.819009 1.719792,-1.885155 -2.414323,0.165364 -2.745052,-2.381251 -0.56224,-2.381251 -2.215885,-0.496093 -1.438886,-2.505468 0.363802,-2.215885 1.308056,0.210126 2.936028,-0.79239 4.761409,-0.617017 2.200951,0.211461 5.342617,1.869838 5.921144,2.303733"
       id="path19"
       sodipodi:nodetypes="csccssc" />
    <path
       style="fill:none;fill-opacity:1;stroke:#674388;stroke-width:1;stroke-linecap:round;stroke-linejoin:round;stroke-miterlimit:5.1;stroke-dasharray:none;stroke-opacity:1"
       d="m 75.440177,80.45202 c 1.870887,0 4.929323,0.596062 6.102107,-0.01605 0.968515,-0.505497 0.694531,-2.113746 -0.334457,-2.339583 1.74427,0.303335 1.543886,-2.196915 -0.09922,-2.223339 1.574204,0.204106 1.915274,-2.261196 0.153042,-2.333909 -2.274688,-0.09386 -4.078176,-1.028988 -5.668431,-0.935442 -1.590254,0.09354 -4.869005,0.837198 -6.552803,3.082261"
       id="path20"
       sodipodi:nodetypes="csccssc" />
    <path
       id="path21"
       style="fill:#d4ae7f;stroke-width:0.939889;stroke-linecap:round;stroke-linejoin:round;stroke-miterlimit:5.1;fill-opacity:1"
       d="m 83.090796,66.84829 c -0.705446,4.827743 -3.089747,3.103248 -6.889467,2.715303 -3.827164,-0.390746 -6.462034,2.802293 -7.01473,-2.715303 -0.241896,-2.414849 1.718712,-4.517817 6.952098,-4.381512 5.279004,0.137492 7.32416,1.835302 6.952099,4.381512 z"
       sodipodi:nodetypes="sssss" />
    <path
       id="path21-6"
       style="fill:#d4ae7f;stroke-width:0.939889;stroke-linecap:round;stroke-linejoin:round;stroke-miterlimit:5.1;fill-opacity:1"
       d="m 83.199358,58.223835 c -0.705447,3.98308 -2.804322,3.037102 -6.604042,2.649158 -3.827163,-0.390746 -7.032885,2.603854 -7.585583,-2.913742 -0.241896,-2.414849 1.932782,-3.988649 7.166169,-3.852345 5.279004,0.137492 7.472523,1.581411 7.023456,4.116929 z"
       sodipodi:nodetypes="sssss" />
    <path
       id="path21-2"
       style="fill:#d4ae7f;stroke-width:0.939889;stroke-linecap:round;stroke-linejoin:round;stroke-miterlimit:5.1;fill-opacity:1"
       d="m 83.361076,49.284175 c 0.926009,4.795612 -3.529619,3.588617 -7.317607,3.112179 -5.347142,-0.672543 -6.212985,3.033673 -6.586592,-2.450721 -0.164883,-2.420416 1.005952,-3.946842 6.238535,-3.7862 5.247449,0.1611 7.046804,-0.08021 7.665664,3.124742 z"
       sodipodi:nodetypes="sssss" />
    <path
       id="path21-9"
       style="fill:#d4ae7f;stroke-width:0.939889;stroke-linecap:round;stroke-linejoin:round;stroke-miterlimit:5.1;fill-opacity:1"
       d="m 82.985287,41.429456 c 0.38962,4.658559 -3.161229,3.513381 -6.889468,2.715303 -4.429717,-0.948238 -7.035283,2.303078 -7.014731,-2.715303 0.0099,-2.426267 4.894485,-4.220186 7.451595,-3.918491 5.238825,0.618091 6.238348,1.356716 6.452604,3.918491 z"
       sodipodi:nodetypes="sssss" />
    <ellipse
       style="fill:#facee2;fill-opacity:1;stroke:none;stroke-width:1;stroke-linecap:round;stroke-linejoin:round;stroke-miterlimit:5.1;stroke-dasharray:none;stroke-opacity:1"
       id="path22"
       cx="67.865623"
       cy="32.907551"
       rx="1.7197917"
       ry="1.8190104" />
    <ellipse
       style="fill:#facee2;fill-opacity:1;stroke:none;stroke-width:1;stroke-linecap:round;stroke-linejoin:round;stroke-miterlimit:5.1;stroke-dasharray:none;stroke-opacity:1"
       id="path22-1"
       cx="84.335938"
       cy="33.172134"
       rx="1.7197917"
       ry="1.8190104" />
    <circle
       style="fill:#facee2;fill-opacity:1;stroke:none;stroke-width:0.430076;stroke-linecap:round;stroke-linejoin:round;stroke-miterlimit:5.1;stroke-dasharray:none;stroke-opacity:1"
       id="path22-8"
       cx="86.287239"
       cy="35.288799"
       r="0.7606771" />
    <circle
       style="fill:#facee2;fill-opacity:1;stroke:none;stroke-width:0.430076;stroke-linecap:round;stroke-linejoin:round;stroke-miterlimit:5.1;stroke-dasharray:none;stroke-opacity:1"
       id="path22-8-5"
       cx="84.765884"
       cy="36.148697"
       r="0.7606771" />
    <circle
       style="fill:#facee2;fill-opacity:1;stroke:none;stroke-width:0.430076;stroke-linecap:round;stroke-linejoin:round;stroke-miterlimit:5.1;stroke-dasharray:none;stroke-opacity:1"
       id="path22-8-0"
       cx="82.913803"
       cy="36.082554"
       r="0.7606771" />
    <circle
       style="fill:#facee2;fill-opacity:1;stroke:none;stroke-width:0.430076;stroke-linecap:round;stroke-linejoin:round;stroke-miterlimit:5.1;stroke-dasharray:none;stroke-opacity:1"
       id="path22-8-1"
       cx="81.78933"
       cy="34.627342"
       r="0.7606771" />
    <circle
       style="fill:#facee2;fill-opacity:1;stroke:none;stroke-width:0.430076;stroke-linecap:round;stroke-linejoin:round;stroke-miterlimit:5.1;stroke-dasharray:none;stroke-opacity:1"
       id="path22-8-2"
       cx="70.478386"
       cy="34.561195"
       r="0.7606771" />
    <circle
       style="fill:#facee2;fill-opacity:1;stroke:none;stroke-width:0.430076;stroke-linecap:round;stroke-linejoin:round;stroke-miterlimit:5.1;stroke-dasharray:none;stroke-opacity:1"
       id="path22-8-07"
       cx="68.824738"
       cy="35.884113"
       r="0.7606771" />
    <circle
       style="fill:#facee2;fill-opacity:1;stroke:none;stroke-width:0.430076;stroke-linecap:round;stroke-linejoin:round;stroke-miterlimit:5.1;stroke-dasharray:none;stroke-opacity:1"
       id="path22-8-12"
       cx="66.840363"
       cy="35.61953"
       r="0.7606771" />
    <circle
       style="fill:#facee2;fill-opacity:1;stroke:none;stroke-width:0.430076;stroke-linecap:round;stroke-linejoin:round;stroke-miterlimit:5.1;stroke-dasharray:none;stroke-opacity:1"
       id="path22-8-4"
       cx="65.186722"
       cy="34.561199"
       r="0.7606771" />
  </g>
  <g
     inkscape:groupmode="layer"
     id="layer5"
     inkscape:label="Layer 3">
    <path
       style="fill:#76c4ee;fill-opacity:1;stroke:none;stroke-width:0.954929;stroke-linecap:round;stroke-linejoin:round;stroke-miterlimit:5.1;stroke-dasharray:none;stroke-opacity:1"
       d="m 145.58062,64.108487 c 4.62035,10.089826 6.35563,14.196754 6.2635,18.73484 -0.12328,6.072465 -5.55191,7.833541 -5.1948,12.50957 0.3571,4.676033 6.23109,5.725873 2.82211,9.603113 -3.72704,4.23901 -7.69341,-1.47263 -8.75888,-6.63062 -1.89521,-9.174725 6.31616,-10.786089 5.79238,-16.572206 -0.52381,-5.786118 -3.35401,-10.847538 -5.2275,-16.430986 0.56373,-0.841393 4.30319,-1.213711 4.30319,-1.213711 z"
       id="path25"
       sodipodi:nodetypes="cssssscc"
       inkscape:export-filename="background\petitparty\capacitor-c.svg"
       inkscape:export-xdpi="96"
       inkscape:export-ydpi="96" />
    <path
       style="fill:#76c4ee;fill-opacity:1;stroke:none;stroke-width:1;stroke-linecap:round;stroke-linejoin:round;stroke-miterlimit:5.1;stroke-dasharray:none;stroke-opacity:1"
       d="m 125.72358,64.171411 4.30304,0.18709 c -0.28083,8.629415 -4.11959,21.036742 -6.92228,25.444056 -4.01157,6.308312 -8.41899,12.722033 -12.72203,9.167346 -4.30304,-3.554685 1.87089,-8.418991 3.92886,-10.289876 2.05798,-1.870887 9.72861,-12.160763 11.41241,-24.508616 z"
       id="path24"
       sodipodi:nodetypes="ccsssc" />
    <path
       style="fill:#f4a684;fill-opacity:1;stroke:none;stroke-width:1;stroke-linecap:round;stroke-linejoin:round;stroke-miterlimit:5.1;stroke-dasharray:none;stroke-opacity:1"
       d="m 124.03978,63.984321 c 0,-3.741772 4.30304,-1.683798 4.30304,-3.928862 0,-3.741773 -6.73519,-5.986834 -7.10937,-16.089624 -0.27698,-7.47842 6.36102,-13.470382 15.15418,-13.470382 8.79317,0 15.34914,6.246886 14.21874,14.96709 -1.30962,10.102789 -8.2319,11.786587 -8.2319,15.154184 0,2.432153 5.61266,0.561265 5.79974,3.741774 0.12085,2.054423 -6.361,1.309618 -11.78657,1.496708 -5.42558,0.187089 -12.34786,0.187089 -12.34786,-1.870888 z"
       id="path23"
       sodipodi:nodetypes="sssssssss" />
    <path
       style="fill:none;fill-opacity:1;stroke:#493934;stroke-width:1;stroke-linecap:round;stroke-linejoin:round;stroke-miterlimit:5.1;stroke-dasharray:none;stroke-opacity:1"
       d="m 128.52991,52.384824 c 4.36607,0.749023 10.86065,1.007317 15.34127,0.561266"
       id="path26"
       sodipodi:nodetypes="cc" />
    <ellipse
       style="fill:#8394e8;fill-opacity:1;stroke:#5f73dd;stroke-width:1.09223;stroke-linecap:round;stroke-linejoin:round;stroke-miterlimit:5.1;stroke-dasharray:none;stroke-opacity:1"
       id="path27"
       cx="129.83954"
       cy="41.81432"
       rx="5.1923656"
       ry="4.7246437" />
    <ellipse
       style="fill:#8394e8;fill-opacity:1;stroke:#5f73dd;stroke-width:1.09223;stroke-linecap:round;stroke-linejoin:round;stroke-miterlimit:5.1;stroke-dasharray:none;stroke-opacity:1"
       id="path27-0"
       cx="144.04131"
       cy="42.699898"
       rx="5.1923656"
       ry="4.7246437" />
    <path
       style="fill:#8394e8;fill-opacity:1;stroke:#513f30;stroke-width:1;stroke-linecap:round;stroke-linejoin:round;stroke-miterlimit:5.1;stroke-dasharray:none;stroke-opacity:1"
       d="m 127.2203,43.778746 c 2.15332,-1.654425 3.83223,-2.834432 5.23848,-3.741772"
       id="path28"
       sodipodi:nodetypes="cc" />
    <path
       style="fill:#8394e8;fill-opacity:1;stroke:#513f30;stroke-width:1;stroke-linecap:round;stroke-linejoin:round;stroke-miterlimit:5.1;stroke-dasharray:none;stroke-opacity:1"
       d="m 127.31749,39.514332 c 1.98311,1.855039 3.42086,3.319291 4.54516,4.558944"
       id="path28-7"
       sodipodi:nodetypes="cc" />
    <path
       style="fill:#8394e8;fill-opacity:1;stroke:#513f30;stroke-width:1;stroke-linecap:round;stroke-linejoin:round;stroke-miterlimit:5.1;stroke-dasharray:none;stroke-opacity:1"
       d="m 141.80921,45.131004 c 1.89553,-1.944452 3.38911,-3.35171 4.65167,-4.450223"
       id="path28-3"
       sodipodi:nodetypes="cc" />
    <path
       style="fill:#8394e8;fill-opacity:1;stroke:#513f30;stroke-width:1;stroke-linecap:round;stroke-linejoin:round;stroke-miterlimit:5.1;stroke-dasharray:none;stroke-opacity:1"
       d="m 141.29759,40.896276 c 2.22727,1.553442 3.85904,2.797818 5.14855,3.864565"
       id="path28-7-8"
       sodipodi:nodetypes="cc" />
  </g>
  <g
     inkscape:groupmode="layer"
     id="layer6"
     inkscape:label="Layer 4">
    <path
       style="fill:#2f4f78;fill-opacity:1;stroke:none;stroke-width:1;stroke-linecap:round;stroke-linejoin:round;stroke-miterlimit:5.1;stroke-dasharray:none;stroke-opacity:1"
       d="m 76.000182,161.32969 c -0.03307,1.85209 0.691335,2.84861 1.752865,2.74505 1.355989,-0.13229 1.521353,-1.38906 1.653644,-2.18281 0.132292,-0.79375 6.516742,-2.11667 6.516742,-0.52917 0,1.5875 -0.132291,2.87734 1.587501,2.87734 0.79375,0 1.885156,-1.2237 1.852083,-5.95312 -5.953125,0.79375 -13.362835,3.04271 -13.362835,3.04271 z"
       id="path34"
       sodipodi:nodetypes="csssscc"
       inkscape:export-filename="background\petitparty\cable.svg"
       inkscape:export-xdpi="96"
       inkscape:export-ydpi="96" />
    <path
       style="fill:#5582bc;fill-opacity:1;stroke:none;stroke-width:1;stroke-linecap:round;stroke-linejoin:round;stroke-miterlimit:5.1;stroke-dasharray:none;stroke-opacity:1"
       d="m 75.736975,157.49323 c 0.264584,-1.19063 7.276042,-4.89479 8.995833,-5.02708 1.719792,-0.13229 8.958709,0.0264 9.789583,0.79375 0.809264,0.74744 0.738953,2.86364 0.661459,4.43509 -0.09215,1.86862 -0.635746,3.2512 -1.439159,3.20572 -2.337231,-0.13229 -0.148341,-3.67206 -1.206674,-2.48144 -1.058334,1.19063 -3.217878,2.95857 -7.583503,3.35544 -4.365625,0.39688 -9.217539,-4.28148 -9.217539,-4.28148 z"
       id="path35"
       sodipodi:nodetypes="cssssssc" />
    <path
       style="fill:#614626;fill-opacity:1;stroke:none;stroke-width:1;stroke-linecap:round;stroke-linejoin:round;stroke-miterlimit:5.1;stroke-dasharray:none;stroke-opacity:1"
       d="m 77.266477,161.38573 c 0,0 -5.918745,0.36477 -6.199378,-1.6932 -0.280633,-2.05798 2.948024,-2.07679 3.883466,-1.70261 0.935445,0.37418 12.550401,-0.35895 12.562341,1.08378 0.01375,1.66109 -0.896787,2.52645 -5.147692,2.60968 -2.467501,0.0483 -5.098737,-0.29765 -5.098737,-0.29765 z"
       id="path33"
       sodipodi:nodetypes="cssssc" />
    <path
       style="fill:#332a20;fill-opacity:1;stroke:none;stroke-width:1;stroke-linecap:round;stroke-linejoin:round;stroke-miterlimit:5.1;stroke-dasharray:none;stroke-opacity:1"
       d="m 56.620829,132.68854 c 9.657292,-1e-5 10.715626,2.64584 16.668751,17.59479 4.563121,11.4585 11.270243,11.64167 14.180659,9.525 -0.176546,1.01707 -1.565124,1.77528 -2.729808,2.04955 -1.194402,0.28128 -12.859095,-0.13475 -14.680077,-0.71941 -8.75977,-2.8125 -9.836299,-22.92599 -16.252502,-23.87727 -7.432743,-1.102 -5.653688,-1.00079 -10.416186,0.58671 -4.7625,1.5875 13.229163,-5.15937 13.229163,-5.15937 z"
       id="path32"
       sodipodi:nodetypes="cscssssc" />
    <path
       style="fill:#614626;fill-opacity:1;stroke:none;stroke-width:1;stroke-linecap:round;stroke-linejoin:round;stroke-miterlimit:5.1;stroke-dasharray:none;stroke-opacity:1"
       d="m 24.60625,168.27499 c 8.333235,-11.00062 9.68576,-36.59226 24.711141,-36.54184 12.808446,0.043 15.447163,1.15363 17.13647,4.25935 -2.799825,-1.39788 -7.660426,-3.68066 -13.272614,0.26791 -9.307355,6.54837 -10.583331,26.45834 -14.287497,31.22084 -3.704167,4.76249 -14.2875,0.79374 -14.2875,0.79374 z"
       id="path31"
       sodipodi:nodetypes="cscssc" />
    <path
       style="fill:#649ad8;fill-opacity:1;stroke:none;stroke-width:1;stroke-linecap:round;stroke-linejoin:round;stroke-miterlimit:5.1;stroke-dasharray:none;stroke-opacity:1"
       d="m 13.485293,183.38468 c -1.403165,0 -2.151519,-2.43215 -2.151519,-5.23848 0,-2.80633 4.191805,-5.41393 4.191805,-0.69576 0,4.71817 -0.450032,5.93424 -2.040286,5.93424 z"
       id="path29"
       sodipodi:nodetypes="ssss" />
    <path
       style="fill:#76adec;fill-opacity:1;stroke:none;stroke-width:1;stroke-linecap:round;stroke-linejoin:round;stroke-miterlimit:5.1;stroke-dasharray:none;stroke-opacity:1"
       d="m 11.691901,179.85935 c -0.58196,-0.87682 -1.167927,-6.05492 -0.606661,-7.73872 0.561265,-1.6838 12.990507,-6.64441 14.674305,-6.45732 1.683798,0.18709 12.873118,-0.39687 13.621477,1.28693 0.510964,1.14966 1.040355,3.43111 1.020381,5.24265 -0.04124,3.74055 -0.873135,7.12424 -1.394557,7.47938 -3.35717,2.2866 -2.268659,-2.27747 -3.644846,-1.83201 -2.094582,0.678 -3.151623,0.1957 -5.286581,1.37346 -1.406001,0.77562 -1.3315,5.63705 -3.555364,5.62894 -3.387393,-0.0124 -2.121637,-3.9302 -3.839926,-3.9965 -4.560401,-0.17593 -10.23677,0.14539 -10.988228,-0.98681 z"
       id="path30"
       sodipodi:nodetypes="sssssssssss" />
    <path
       style="fill:none;fill-opacity:1;stroke:#26211d;stroke-width:1;stroke-linecap:round;stroke-linejoin:round;stroke-miterlimit:5.1;stroke-dasharray:none;stroke-opacity:1"
       d="m 15.902536,171.74739 0.187089,2.05798"
       id="path36" />
    <path
       style="fill:none;fill-opacity:1;stroke:#26211d;stroke-width:1;stroke-linecap:round;stroke-linejoin:round;stroke-miterlimit:5.1;stroke-dasharray:none;stroke-opacity:1"
       d="m 24.321526,171.93448 v 2.24507"
       id="path37" />
    <path
       style="fill:none;fill-opacity:1;stroke:#26211d;stroke-width:1;stroke-linecap:round;stroke-linejoin:round;stroke-miterlimit:5.1;stroke-dasharray:none;stroke-opacity:1"
       d="m 17.212157,176.6117 c 0.311814,3.61653 3.804136,2.65548 4.303039,-0.18709"
       id="path38"
       sodipodi:nodetypes="cc" />
    <path
       style="fill:none;fill-opacity:1;stroke:#a0c7f4;stroke-width:1;stroke-linecap:round;stroke-linejoin:round;stroke-miterlimit:5.1;stroke-dasharray:none;stroke-opacity:1"
       d="m 28.624564,171.93448 7.857725,-3.27405"
       id="path39" />
  </g>
</svg>
