<?xml version="1.0" encoding="UTF-8" standalone="no"?>
<!-- Created with Inkscape (http://www.inkscape.org/) -->

<svg
   width="24.812494mm"
   height="79.980385mm"
   viewBox="0 0 24.812494 79.980385"
   version="1.1"
   id="svg1"
   inkscape:version="1.3.2 (091e20e, 2023-11-25, custom)"
   sodipodi:docname="items.ink.svg"
   xmlns:inkscape="http://www.inkscape.org/namespaces/inkscape"
   xmlns:sodipodi="http://sodipodi.sourceforge.net/DTD/sodipodi-0.dtd"
   xmlns="http://www.w3.org/2000/svg"
   xmlns:svg="http://www.w3.org/2000/svg">
  <sodipodi:namedview
     id="namedview1"
     pagecolor="#ffffff"
     bordercolor="#000000"
     borderopacity="0.25"
     inkscape:showpageshadow="2"
     inkscape:pageopacity="0.0"
     inkscape:pagecheckerboard="0"
     inkscape:deskcolor="#d1d1d1"
     inkscape:document-units="mm"
     inkscape:zoom="1.4142136"
     inkscape:cx="145.664"
     inkscape:cy="268.34702"
     inkscape:window-width="1600"
     inkscape:window-height="829"
     inkscape:window-x="-8"
     inkscape:window-y="-8"
     inkscape:window-maximized="1"
     inkscape:current-layer="layer1" />
  <defs
     id="defs1" />
  <g
     inkscape:groupmode="layer"
     id="layer4"
     inkscape:label="Layer 2"
     transform="translate(-63.529165,-24.695703)">
    <path
       id="rect1"
       style="fill:#a48bbc;fill-opacity:1;stroke-linecap:round;stroke-linejoin:round;stroke-miterlimit:5.1"
       d="m 69.503437,29.934185 c 1.957262,1.303243 1.319028,3.367596 2.806332,3.367596 3.264646,0 -1.48994,-8.606079 3.46114,-8.606079 4.95108,0 -0.01916,8.793168 3.741773,8.793168 1.796501,0 1.959172,-2.191228 3.741771,-3.086963 1.782599,-0.895735 4.490128,0.957287 4.490128,3.64823 v 41.341087 c 0,0 -2.338608,-0.677599 -2.338608,1.122532 0,1.800132 2.338608,1.122532 2.338608,1.122532 V 104.58256 H 63.984322 V 33.488871 c 0,-3.232627 3.561854,-4.857929 5.519115,-3.554686 z"
       sodipodi:nodetypes="zszszcczccccz"
       inkscape:export-filename="background\petitparty\memory.svg"
       inkscape:export-xdpi="96"
       inkscape:export-ydpi="96" />
    <ellipse
       style="fill:#fdfdfc;fill-opacity:1;stroke-width:1.26985;stroke-linecap:round;stroke-linejoin:round;stroke-miterlimit:5.1"
       id="path10"
       cx="70.246155"
       cy="101.08121"
       rx="3.6425827"
       ry="3.5948815" />
    <ellipse
       style="fill:#fdfdfc;fill-opacity:1;stroke-width:1.26985;stroke-linecap:round;stroke-linejoin:round;stroke-miterlimit:5.1"
       id="path10-4"
       cx="81.396454"
       cy="100.98813"
       rx="3.6425827"
       ry="3.5948815" />
    <ellipse
       style="fill:#0b0908;fill-opacity:1;stroke-width:1.22735;stroke-linecap:round;stroke-linejoin:round;stroke-miterlimit:5.1"
       id="path11"
       cx="69.971161"
       cy="100.3263"
       rx="2.80633"
       ry="2.7595577" />
    <ellipse
       style="fill:#0b0908;fill-opacity:1;stroke-width:1.22735;stroke-linecap:round;stroke-linejoin:round;stroke-miterlimit:5.1"
       id="path11-3"
       cx="81.110176"
       cy="100.24912"
       rx="2.80633"
       ry="2.7595577" />
    <ellipse
       style="fill:#fdfdfc;fill-opacity:1;stroke-width:0.161085;stroke-linecap:round;stroke-linejoin:round;stroke-miterlimit:5.1"
       id="path10-6"
       cx="68.927711"
       cy="98.830132"
       rx="0.46207535"
       ry="0.45602429" />
    <ellipse
       style="fill:#fdfdfc;fill-opacity:1;stroke-width:0.161085;stroke-linecap:round;stroke-linejoin:round;stroke-miterlimit:5.1"
       id="path10-6-1"
       cx="80.104881"
       cy="98.803528"
       rx="0.46207535"
       ry="0.45602429" />
    <path
       style="fill:none;fill-opacity:1;stroke:#442a18;stroke-width:1;stroke-linecap:round;stroke-linejoin:round;stroke-miterlimit:5.1;stroke-dasharray:none;stroke-opacity:1"
       d="m 73.002824,96.754033 c 0,-2.161763 2.9084,-2.281859 2.9084,0.120106 0.116343,-2.161764 3.189037,-2.06822 3.189037,0.08087"
       id="path12"
       sodipodi:nodetypes="ccc" />
    <path
       style="fill:none;fill-opacity:1;stroke:#442a18;stroke-width:1;stroke-linecap:round;stroke-linejoin:round;stroke-miterlimit:5.1;stroke-dasharray:none;stroke-opacity:1"
       d="m 85.328121,93.265621 2.38125,1.058333"
       id="path13" />
    <path
       style="fill:none;fill-opacity:1;stroke:#442a18;stroke-width:1;stroke-linecap:round;stroke-linejoin:round;stroke-miterlimit:5.1;stroke-dasharray:none;stroke-opacity:1"
       d="m 85.328121,90.619788 h 2.513542"
       id="path14" />
    <path
       style="fill:none;fill-opacity:1;stroke:#442a18;stroke-width:1;stroke-linecap:round;stroke-linejoin:round;stroke-miterlimit:5.1;stroke-dasharray:none;stroke-opacity:1"
       d="M 84.931246,88.503121 87.57708,87.57708"
       id="path15" />
    <path
       style="fill:none;fill-opacity:1;stroke:#442a18;stroke-width:1;stroke-linecap:round;stroke-linejoin:round;stroke-miterlimit:5.1;stroke-dasharray:none;stroke-opacity:1"
       d="M 66.542705,91.810413 64.029163,91.678121"
       id="path16" />
    <path
       style="fill:none;fill-opacity:1;stroke:#442a18;stroke-width:1;stroke-linecap:round;stroke-linejoin:round;stroke-miterlimit:5.1;stroke-dasharray:none;stroke-opacity:1"
       d="m 66.278122,93.662496 -2.116667,0.79375"
       id="path17" />
    <path
       style="fill:none;fill-opacity:1;stroke:#442a18;stroke-width:1;stroke-linecap:round;stroke-linejoin:round;stroke-miterlimit:5.1;stroke-dasharray:none;stroke-opacity:1"
       d="m 66.674997,89.16458 -2.38125,-0.661459"
       id="path18" />
    <path
       style="fill:none;fill-opacity:1;stroke:#674388;stroke-width:1;stroke-linecap:round;stroke-linejoin:round;stroke-miterlimit:5.1;stroke-dasharray:none;stroke-opacity:1"
       d="m 80.962496,89.561455 c -5.423958,-2.745052 -10.871048,0.913567 -11.310937,-1.984376 -0.13629,-0.897865 0.463021,-1.819009 1.719792,-1.885155 -2.414323,0.165364 -2.745052,-2.381251 -0.56224,-2.381251 -2.215885,-0.496093 -1.438886,-2.505468 0.363802,-2.215885 1.308056,0.210126 2.936028,-0.79239 4.761409,-0.617017 2.200951,0.211461 5.342617,1.869838 5.921144,2.303733"
       id="path19"
       sodipodi:nodetypes="csccssc" />
    <path
       style="fill:none;fill-opacity:1;stroke:#674388;stroke-width:1;stroke-linecap:round;stroke-linejoin:round;stroke-miterlimit:5.1;stroke-dasharray:none;stroke-opacity:1"
       d="m 75.440177,80.45202 c 1.870887,0 4.929323,0.596062 6.102107,-0.01605 0.968515,-0.505497 0.694531,-2.113746 -0.334457,-2.339583 1.74427,0.303335 1.543886,-2.196915 -0.09922,-2.223339 1.574204,0.204106 1.915274,-2.261196 0.153042,-2.333909 -2.274688,-0.09386 -4.078176,-1.028988 -5.668431,-0.935442 -1.590254,0.09354 -4.869005,0.837198 -6.552803,3.082261"
       id="path20"
       sodipodi:nodetypes="csccssc" />
    <path
       id="path21"
       style="fill:#d4ae7f;fill-opacity:1;stroke-width:0.939889;stroke-linecap:round;stroke-linejoin:round;stroke-miterlimit:5.1"
       d="m 83.090796,66.84829 c -0.705446,4.827743 -3.089747,3.103248 -6.889467,2.715303 -3.827164,-0.390746 -6.462034,2.802293 -7.01473,-2.715303 -0.241896,-2.414849 1.718712,-4.517817 6.952098,-4.381512 5.279004,0.137492 7.32416,1.835302 6.952099,4.381512 z"
       sodipodi:nodetypes="sssss" />
    <path
       id="path21-6"
       style="fill:#d4ae7f;fill-opacity:1;stroke-width:0.939889;stroke-linecap:round;stroke-linejoin:round;stroke-miterlimit:5.1"
       d="m 83.199358,58.223835 c -0.705447,3.98308 -2.804322,3.037102 -6.604042,2.649158 -3.827163,-0.390746 -7.032885,2.603854 -7.585583,-2.913742 -0.241896,-2.414849 1.932782,-3.988649 7.166169,-3.852345 5.279004,0.137492 7.472523,1.581411 7.023456,4.116929 z"
       sodipodi:nodetypes="sssss" />
    <path
       id="path21-2"
       style="fill:#d4ae7f;fill-opacity:1;stroke-width:0.939889;stroke-linecap:round;stroke-linejoin:round;stroke-miterlimit:5.1"
       d="m 83.361076,49.284175 c 0.926009,4.795612 -3.529619,3.588617 -7.317607,3.112179 -5.347142,-0.672543 -6.212985,3.033673 -6.586592,-2.450721 -0.164883,-2.420416 1.005952,-3.946842 6.238535,-3.7862 5.247449,0.1611 7.046804,-0.08021 7.665664,3.124742 z"
       sodipodi:nodetypes="sssss" />
    <path
       id="path21-9"
       style="fill:#d4ae7f;fill-opacity:1;stroke-width:0.939889;stroke-linecap:round;stroke-linejoin:round;stroke-miterlimit:5.1"
       d="m 82.985287,41.429456 c 0.38962,4.658559 -3.161229,3.513381 -6.889468,2.715303 -4.429717,-0.948238 -7.035283,2.303078 -7.014731,-2.715303 0.0099,-2.426267 4.894485,-4.220186 7.451595,-3.918491 5.238825,0.618091 6.238348,1.356716 6.452604,3.918491 z"
       sodipodi:nodetypes="sssss" />
    <ellipse
       style="fill:#facee2;fill-opacity:1;stroke:none;stroke-width:1;stroke-linecap:round;stroke-linejoin:round;stroke-miterlimit:5.1;stroke-dasharray:none;stroke-opacity:1"
       id="path22"
       cx="67.865623"
       cy="32.907551"
       rx="1.7197917"
       ry="1.8190104" />
    <ellipse
       style="fill:#facee2;fill-opacity:1;stroke:none;stroke-width:1;stroke-linecap:round;stroke-linejoin:round;stroke-miterlimit:5.1;stroke-dasharray:none;stroke-opacity:1"
       id="path22-1"
       cx="84.335938"
       cy="33.172134"
       rx="1.7197917"
       ry="1.8190104" />
    <circle
       style="fill:#facee2;fill-opacity:1;stroke:none;stroke-width:0.430076;stroke-linecap:round;stroke-linejoin:round;stroke-miterlimit:5.1;stroke-dasharray:none;stroke-opacity:1"
       id="path22-8"
       cx="86.287239"
       cy="35.288799"
       r="0.7606771" />
    <circle
       style="fill:#facee2;fill-opacity:1;stroke:none;stroke-width:0.430076;stroke-linecap:round;stroke-linejoin:round;stroke-miterlimit:5.1;stroke-dasharray:none;stroke-opacity:1"
       id="path22-8-5"
       cx="84.765884"
       cy="36.148697"
       r="0.7606771" />
    <circle
       style="fill:#facee2;fill-opacity:1;stroke:none;stroke-width:0.430076;stroke-linecap:round;stroke-linejoin:round;stroke-miterlimit:5.1;stroke-dasharray:none;stroke-opacity:1"
       id="path22-8-0"
       cx="82.913803"
       cy="36.082554"
       r="0.7606771" />
    <circle
       style="fill:#facee2;fill-opacity:1;stroke:none;stroke-width:0.430076;stroke-linecap:round;stroke-linejoin:round;stroke-miterlimit:5.1;stroke-dasharray:none;stroke-opacity:1"
       id="path22-8-1"
       cx="81.78933"
       cy="34.627342"
       r="0.7606771" />
    <circle
       style="fill:#facee2;fill-opacity:1;stroke:none;stroke-width:0.430076;stroke-linecap:round;stroke-linejoin:round;stroke-miterlimit:5.1;stroke-dasharray:none;stroke-opacity:1"
       id="path22-8-2"
       cx="70.478386"
       cy="34.561195"
       r="0.7606771" />
    <circle
       style="fill:#facee2;fill-opacity:1;stroke:none;stroke-width:0.430076;stroke-linecap:round;stroke-linejoin:round;stroke-miterlimit:5.1;stroke-dasharray:none;stroke-opacity:1"
       id="path22-8-07"
       cx="68.824738"
       cy="35.884113"
       r="0.7606771" />
    <circle
       style="fill:#facee2;fill-opacity:1;stroke:none;stroke-width:0.430076;stroke-linecap:round;stroke-linejoin:round;stroke-miterlimit:5.1;stroke-dasharray:none;stroke-opacity:1"
       id="path22-8-12"
       cx="66.840363"
       cy="35.61953"
       r="0.7606771" />
    <circle
       style="fill:#facee2;fill-opacity:1;stroke:none;stroke-width:0.430076;stroke-linecap:round;stroke-linejoin:round;stroke-miterlimit:5.1;stroke-dasharray:none;stroke-opacity:1"
       id="path22-8-4"
       cx="65.186722"
       cy="34.561199"
       r="0.7606771" />
  </g>
</svg>
